<?xml version="1.0" encoding="UTF-8"?>
<svg xmlns="http://www.w3.org/2000/svg" xml:space="preserve" width="108px" height="71px" version="1.1"  stroke="#fff" stroke-width="11" fill="none" stroke-linecap="round" viewBox="0 0 300 210">
  <path d="M47.94 45.75l-11.7 1.03c-5.85,0.51 -11.18,6.87 -10.67,12.72l11.25 128.64c0.51,5.85 6.87,11.18 12.72,10.67l187.12 -16.37c5.84,-0.51 11.38,-4.53 11.08,-8.04l0 0"/>
  <path d="M60.78 21.06l201.92 0c6.48,0 11.74,5.26 11.74,11.74l0 127.96c0,6.48 -5.26,11.74 -11.74,11.74l-201.92 0c-6.48,0 -11.74,-5.26 -11.74,-11.74l0 -127.96c0,-6.48 5.26,-11.74 11.74,-11.74z"/>
  <path d="M169.4 62.12c12.62,-1.34 26.01,-1.59 44.25,3.3"/>
  <path d="M213.65 65.42c32.35,7.3 9.18,54.18 13.72,78.43"/>
  <path d="M117.51 50.91c-38.8,-0.56 -9.04,71.02 -20.91,84.96"/>
  <path d="M120.51 50.08c56.57,-15.35 37.66,60.9 11.41,44.69"/>
  <path d="M143.02 119.6c47.74,6.19 58.07,-13.16 58.3,25.63"/>
  <path d="M115.78 112.14c3.28,26.75 3.26,17.33 3.7,34.43"/>
  <path d="M141.69 120.1c3.28,21.3 2.22,11.96 2.65,25.57"/>
</svg>
