<svg xmlns="http://www.w3.org/2000/svg" xml:space="preserve" width="108" height="71" version="1.1" stroke="#fff" stroke-width="11" fill="none" stroke-linecap="round" viewBox="0 0 300 210"><path d="M47.94 45.75l-11.7 1.03c-5.85.51-11.18 6.87-10.67 12.72l11.25 128.64c.51 5.85 6.87 11.18 12.72 10.67l187.12-16.37c5.84-.51 11.38-4.53 11.08-8.04h0"/><path d="M60.78 21.06H262.7c6.48 0 11.74 5.26 11.74 11.74v127.96c0 6.48-5.26 11.74-11.74 11.74H60.78c-6.48 0-11.74-5.26-11.74-11.74V32.8c0-6.48 5.26-11.74 11.74-11.74zM169.4 62.12c12.62-1.34 26.01-1.59 44.25 3.3M213.65 65.42c32.35 7.3 9.18 54.18 13.72 78.43M117.51 50.91c-38.8-.56-9.04 71.02-20.91 84.96M120.51 50.08c56.57-15.35 37.66 60.9 11.41 44.69M143.02 119.6c47.74 6.19 58.07-13.16 58.3 25.63M115.78 112.14c3.28 26.75 3.26 17.33 3.7 34.43M141.69 120.1c3.28 21.3 2.22 11.96 2.65 25.57"/></svg>