<svg version="1.0" xmlns="http://www.w3.org/2000/svg" width="108" height="71" viewBox="-15 -5 200 180" stroke="#fff" stroke-width="10" fill="none"><g transform="matrix(.88633 .15628 -.37246 .64512 42.46 27.59)">&gt;<rect x="0" y="0" rx="10" ry="10" width="45" height="45"/><rect x="60" y="0" rx="10" ry="10" width="45" height="45"/><rect x="120" y="0" rx="10" ry="10" width="45" height="45"/><rect x="0" y="60" rx="10" ry="10" width="45" height="45"/><rect x="60" y="60" rx="10" ry="10" width="45" height="45"/><rect x="120" y="60" rx="10" ry="10" width="45" height="45"/><rect x="0" y="120" rx="10" ry="10" width="45" height="45"/><rect x="60" y="120" rx="10" ry="10" width="45" height="45"/><rect x="120" y="120" rx="10" ry="10" width="45" height="45"/></g></svg>