<?xml version="1.0" encoding="UTF-8"?>
<svg xmlns="http://www.w3.org/2000/svg" xml:space="preserve" width="300px" height="210px" version="1.1" viewBox="0 0 300 210" stroke="#fff" stroke-width="11" fill="none" stroke-linecap="round">
  <path d="M47.94 45.75l-11.7 1.03c-5.85,0.51 -11.18,6.87 -10.67,12.72l11.25 128.64c0.51,5.85 6.87,11.18 12.72,10.67l187.12 -16.37c5.84,-0.51 11.38,-4.53 11.08,-8.04l0 0"/>
  <path d="M60.78 21.06l201.92 0c6.48,0 11.74,5.26 11.74,11.74l0 127.96c0,6.48 -5.26,11.74 -11.74,11.74l-201.92 0c-6.48,0 -11.74,-5.26 -11.74,-11.74l0 -127.96c0,-6.48 5.26,-11.74 11.74,-11.74z"/>
  <path d="M248.75 138.59c10.96,-34.68 -19.59,-45.09 -35.39,-50.41 -9.9,-18.06 -21.44,-40.5 -39.36,-42.34 -43.37,-4.44 -53.21,7.29 -63.47,42.2 -25.08,-0.32 -39.76,5.11 -34.03,48.57"/>
  <circle cx="207.23" cy="135.87" r="19.62"/>
  <circle cx="113.92" cy="135.87" r="19.62"/>
  <line x1="170.54" y1="139.07" x2="148.15" y2= "139.02" />
</svg>
