<svg xmlns="http://www.w3.org/2000/svg" xml:space="preserve" width="108" height="71" version="1.1" viewBox="0 0 300 210" stroke="#fff" stroke-width="11" fill="none" stroke-linecap="round"><path d="M47.94 45.75l-11.7 1.03c-5.85.51-11.18 6.87-10.67 12.72l11.25 128.64c.51 5.85 6.87 11.18 12.72 10.67l187.12-16.37c5.84-.51 11.38-4.53 11.08-8.04h0"/><path d="M60.78 21.06H262.7c6.48 0 11.74 5.26 11.74 11.74v127.96c0 6.48-5.26 11.74-11.74 11.74H60.78c-6.48 0-11.74-5.26-11.74-11.74V32.8c0-6.48 5.26-11.74 11.74-11.74zM163.61 112.16c-7.16 15.66-6.62 34.03-1.27 46.19"/><path d="M131.61 47.62c99.43 47.3-22.07 112.85 0 0m28.72 60.21c15.26 6.83 37.39-5.79 26.67-60.6m0 0c-12.45 5.92-21.43 12.13-27.67 18.23m.57-29.06c-4.66 5.3-7.64 10.03-9.34 14.17m10.55-13.91c4.66 5.3 7.64 10.03 9.34 14.16M213.29 119c-36.42 70.78-81.51 5.11 0 0M106.68 118.97c36.42 70.79 81.51 5.11 0 0"/></svg>