<svg xmlns="http://www.w3.org/2000/svg" xml:space="preserve" width="108" height="71" version="1.1" viewBox="0 0 300 210" stroke="#fff" stroke-width="11" fill="none" stroke-linecap="round"><path d="M47.94 45.75l-11.7 1.03c-5.85.51-11.18 6.87-10.67 12.72l11.25 128.64c.51 5.85 6.87 11.18 12.72 10.67l187.12-16.37c5.84-.51 11.38-4.53 11.08-8.04h0"/><path d="M60.78 21.06H262.7c6.48 0 11.74 5.26 11.74 11.74v127.96c0 6.48-5.26 11.74-11.74 11.74H60.78c-6.48 0-11.74-5.26-11.74-11.74V32.8c0-6.48 5.26-11.74 11.74-11.74zM205.43 91.56c54.53-26.6 33.71 79.62-1 60.52M203.44 91.56c-54.53-26.6-33.71 79.62.99 60.52M190.41 52.44c6.52 2.73 12.19 15.32 11.5 21.69M241.68 51.35c-18.33 48.26-49.18-.58 0 0"/><path d="M144.5 61.52c-10.89-13.96-18.85 19.85-41.01 25.68-30.69 8.07-41.46 54.15-3.46 58.7"/><path d="M144.62 61.58c17.67 1.13-5.76 26.77 1.93 48.35 10.65 29.89-21.32 64.78-46.52 35.97M170.05 37.61c-6.51-.58-16.57 7.26-18.75 12.76"/></svg>