<?xml version="1.0" encoding="UTF-8"?>
<svg xmlns="http://www.w3.org/2000/svg" xml:space="preserve" width="108px" height="71px" version="1.1" stroke="#fff" stroke-width="11" fill="none" stroke-linecap="round" viewBox="0 0 300 210">
  <path class="fil0 str0" d="M47.94 45.75l-11.7 1.03c-5.85,0.51 -11.18,6.87 -10.67,12.72l11.25 128.64c0.51,5.85 6.87,11.18 12.72,10.67l187.12 -16.37c5.84,-0.51 11.38,-4.53 11.08,-8.04l0 0"/>
  <path class="fil0 str1" d="M60.78 21.06l201.92 0c6.48,0 11.74,5.26 11.74,11.74l0 127.96c0,6.48 -5.26,11.74 -11.74,11.74l-201.92 0c-6.48,0 -11.74,-5.26 -11.74,-11.74l0 -127.96c0,-6.48 5.26,-11.74 11.74,-11.74z"/>
  <path class="fil0 str1" d="M181.68 138.38c-3.58,6.78 -3.3,14.73 -0.63,19.99"/>
  <path class="fil0 str1" d="M181.91 64.25c-10.36,38.13 -69.76,-8.49 -45.3,59.69"/>
  <path class="fil0 str1" d="M136.03 144.15c-26.15,-5.95 -23.69,-57.67 -23.71,-58.45 -1.78,-61.32 98.62,-65.88 100.99,-0.61 0.02,0.82 -1.99,51.49 -13.24,57.8"/>
  <path class="fil0 str1" d="M181.91 64.25c-0.59,18.13 21.69,6.98 14.18,44.06"/>
  <path class="fil0 str1" d="M149.47 139.15c3.58,6.46 3.3,14.04 0.63,19.06"/>
  <path class="fil0 str1" d="M156.47 94.78c0.41,-0.11 0.82,0.01 1.06,0.22"/>
  <path class="fil0 str1" d="M177.14 94.48c0.41,-0.11 0.82,0.01 1.06,0.23"/>
  <path class="fil0 str1" d="M160.29 121.61c7,3.12 14.91,2.33 19.99,-0.68"/>
</svg>
