<svg xmlns="http://www.w3.org/2000/svg" width="108" height="71" viewBox="0 0 300 210" stroke="#fff" fill="none" stroke-width="11" stroke-linecap="round"><path d="M47.94 45.75l-11.7 1.03c-5.85.51-11.18 6.87-10.67 12.72l11.25 128.64c.51 5.85 6.87 11.18 12.72 10.67l187.12-16.37c5.84-.51 11.38-4.53 11.08-8.04h0"/><path d="M60.78 21.06H262.7c6.48 0 11.74 5.26 11.74 11.74v127.96c0 6.48-5.26 11.74-11.74 11.74H60.78c-6.48 0-11.74-5.26-11.74-11.74V32.8c0-6.48 5.26-11.74 11.74-11.74z"/><g transform="matrix(1.15 0 0 1.15 35 -10)"><circle cx="55" cy="65" r="20"/><path d="M15 134c56-44 56-44 75-24M75 134c76-94 56-94 132 0"/></g></svg>