<svg xmlns="http://www.w3.org/2000/svg" width="108px" height="71px" viewBox="0 0 300 210" stroke="#ffffff" fill="none" stroke-width="11" stroke-linecap="round">

  <path d="M47.94 45.75l-11.7 1.03c-5.85,0.51 -11.18,6.87 -10.67,12.72l11.25 128.64c0.51,5.85 6.87,11.18 12.72,10.67l187.12 -16.37c5.84,-0.51 11.38,-4.53 11.08,-8.04l0 0"/>
  <path d="M60.78 21.06l201.92 0c6.48,0 11.74,5.26 11.74,11.74l0 127.96c0,6.48 -5.26,11.74 -11.74,11.74l-201.92 0c-6.48,0 -11.74,-5.26 -11.74,-11.74l0 -127.96c0,-6.48 5.26,-11.74 11.74,-11.74z"/>







  <g transform="translate(35,-10)scale(1.15)">

    <circle cx="55" cy="65" r="20"/>
    <path d="M15 134 C71 90, 71 90, 90 110"/>
    <path d="M75 134 C151 40, 131 40, 207 134"/>
  </g>
</svg>
