<svg xmlns="http://www.w3.org/2000/svg" width="108px" height="71px" viewBox="-50 -5 257 170" stroke="white" stroke-width="8" fill="none" >
  <g transform="scale(0.6, 0.6) translate(-110 45)">
    <ellipse cx="75" cy="72" rx="47" ry="59" transform="rotate(-5)"   />
    <ellipse cx="70" cy="56" rx="7" ry="11" stroke="none" fill="white" transform="rotate(-2)"/>
    <ellipse cx="93" cy="56" rx="7" ry="11" stroke="none" fill="white" transform="rotate(-2)"/>
    <path stroke-linecap="round" d="M62 87 C70 95, 96 95, 104 86"   />
    <path stroke-linecap="round" d="M35 155 C70 110, 96 120, 130 145"   />  </g>
  <g transform="scale(-0.70,0.74) translate(-145 35)">
    <ellipse cx="75" cy="72" rx="47" ry="59" transform="rotate(-5)"   />
    <ellipse cx="70" cy="56" rx="7" ry="11" stroke="none" fill="white" transform="rotate(-2)"/>
    <ellipse cx="93" cy="56" rx="7" ry="11" stroke="none" fill="white" transform="rotate(-2)"/>
    <path stroke-linecap="round" d="M62 87 C70 95, 96 95, 104 86"   />
    <path stroke-linecap="round" d="M35 155 C70 110, 96 120, 130 145"   />
  </g>


  <g transform="scale(-0.65,0.65) translate(-345 45)">
    <ellipse cx="75" cy="72" rx="47" ry="59" transform="rotate(-5)"   />
    <ellipse cx="70" cy="56" rx="7" ry="11" stroke="none" fill="white" transform="rotate(-2)"/>
    <ellipse cx="93" cy="56" rx="7" ry="11" stroke="none" fill="white" transform="rotate(-2)"/>
    <path stroke-linecap="round" d="M62 87 C70 95, 96 95, 104 86"   />
    <path stroke-linecap="round" d="M35 155 C70 110, 96 120, 130 145"   />
  </g>
  <g transform="scale(0.67, 0.7) translate(82 45)">
    <ellipse cx="75" cy="72" rx="47" ry="59" transform="rotate(-5)"   />
    <ellipse cx="70" cy="56" rx="7" ry="11" stroke="none" fill="white" transform="rotate(-2)"/>
    <ellipse cx="93" cy="56" rx="7" ry="11" stroke="none" fill="white" transform="rotate(-2)"/>
    <path stroke-linecap="round" d="M62 85 C70 95, 96 95, 104 86"   />
    <path stroke-linecap="round" d="M30 150 C70 110, 96 120, 130 145"   />
  </g>
</svg>
