<svg xmlns="http://www.w3.org/2000/svg" width="108" height="71" viewBox="-50 -5 257 170" stroke="#fff" stroke-width="8" fill="none"><g transform="matrix(.6 0 0 .6 -66 27)"><ellipse cx="75" cy="72" rx="47" ry="59" transform="rotate(-5)"/><ellipse cx="70" cy="56" rx="7" ry="11" fill="#fff" transform="rotate(-2)" stroke="none"/><ellipse cx="93" cy="56" rx="7" ry="11" fill="#fff" transform="rotate(-2)" stroke="none"/><path stroke-linecap="round" d="M62 87c8 8 34 8 42-1M35 155c35-45 61-35 95-10"/></g><g transform="matrix(-.7 0 0 .74 101.5 25.9)"><ellipse cx="75" cy="72" rx="47" ry="59" transform="rotate(-5)"/><ellipse cx="70" cy="56" rx="7" ry="11" fill="#fff" transform="rotate(-2)" stroke="none"/><ellipse cx="93" cy="56" rx="7" ry="11" fill="#fff" transform="rotate(-2)" stroke="none"/><path stroke-linecap="round" d="M62 87c8 8 34 8 42-1M35 155c35-45 61-35 95-10"/></g><g transform="matrix(-.65 0 0 .65 224.25 29.25)"><ellipse cx="75" cy="72" rx="47" ry="59" transform="rotate(-5)"/><ellipse cx="70" cy="56" rx="7" ry="11" fill="#fff" transform="rotate(-2)" stroke="none"/><ellipse cx="93" cy="56" rx="7" ry="11" fill="#fff" transform="rotate(-2)" stroke="none"/><path stroke-linecap="round" d="M62 87c8 8 34 8 42-1M35 155c35-45 61-35 95-10"/></g><g transform="matrix(.67 0 0 .7 54.94 31.5)"><ellipse cx="75" cy="72" rx="47" ry="59" transform="rotate(-5)"/><ellipse cx="70" cy="56" rx="7" ry="11" fill="#fff" transform="rotate(-2)" stroke="none"/><ellipse cx="93" cy="56" rx="7" ry="11" fill="#fff" transform="rotate(-2)" stroke="none"/><path stroke-linecap="round" d="M62 85c8 10 34 10 42 1M30 150c40-40 66-30 100-5"/></g></svg>