<svg xmlns="http://www.w3.org/2000/svg" width="108" height="71" viewBox="-50 -5 257 170" stroke="#fff" stroke-width="8" fill="none"><g transform="matrix(.75 0 0 .75 -60 22.5)"><ellipse cx="75" cy="72" rx="47" ry="59" transform="rotate(-5)"/><ellipse cx="70" cy="56" rx="7" ry="11" fill="#fff" transform="rotate(-2)" stroke="none"/><ellipse cx="93" cy="56" rx="7" ry="11" fill="#fff" transform="rotate(-2)" stroke="none"/><path stroke-linecap="round" d="M62 87c8 8 34 8 42-1M35 155c35-45 61-35 95-10"/></g><g transform="matrix(-.8 0 0 .8 224 12)"><ellipse cx="75" cy="72" rx="47" ry="59" transform="rotate(-5)"/><ellipse cx="70" cy="56" rx="7" ry="11" fill="#fff" transform="rotate(-2)" stroke="none"/><ellipse cx="93" cy="56" rx="7" ry="11" fill="#fff" transform="rotate(-2)" stroke="none"/><path stroke-linecap="round" d="M62 87c8 8 34 8 42-1M35 155c35-45 61-35 95-10"/></g><g transform="matrix(.9 0 0 .9 4.5 0)"><ellipse cx="75" cy="72" rx="47" ry="59" transform="rotate(-5)"/><ellipse cx="70" cy="56" rx="7" ry="11" fill="#fff" transform="rotate(-2)" stroke="none"/><ellipse cx="93" cy="56" rx="7" ry="11" fill="#fff" transform="rotate(-2)" stroke="none"/><path stroke-linecap="round" d="M62 87c8 8 34 8 42-1M35 155c35-45 61-35 95-10"/></g></svg>