<svg xmlns="http://www.w3.org/2000/svg" width="108" height="71" viewBox="-50 -5 257 170" stroke="#fff" stroke-width="8" fill="none"><g transform="matrix(.58 0 0 .58 -8.7 -1.16)"><ellipse cx="75" cy="72" rx="47" ry="59" transform="rotate(-5)"/><ellipse cx="70" cy="56" rx="7" ry="11" fill="#fff" transform="rotate(-2)" stroke="none"/><ellipse cx="93" cy="56" rx="7" ry="11" fill="#fff" transform="rotate(-2)" stroke="none"/><path stroke-linecap="round" d="M62 85c8 10 34 10 42 1"/></g><g transform="matrix(-.55 0 0 .55 156.75 -1.65)"><ellipse cx="75" cy="72" rx="47" ry="59" transform="rotate(-5)"/><ellipse cx="70" cy="56" rx="7" ry="11" fill="#fff" transform="rotate(-2)" stroke="none"/><ellipse cx="93" cy="55" rx="7" ry="11" fill="#fff" transform="rotate(-2)" stroke="none"/><path stroke-linecap="round" d="M62 84c8 11 36 11 42 0"/></g><g transform="matrix(.6 0 0 .6 -33 63)"><ellipse cx="75" cy="72" rx="47" ry="59" transform="rotate(-5)"/><ellipse cx="70" cy="56" rx="7" ry="11" fill="#fff" transform="rotate(-2)" stroke="none"/><ellipse cx="93" cy="56" rx="7" ry="11" fill="#fff" transform="rotate(-2)" stroke="none"/><path stroke-linecap="round" d="M62 87c8 8 34 8 42-1M35 155c35-45 61-35 95-10"/></g><g transform="matrix(-.65 0 0 .65 195 55.25)"><ellipse cx="75" cy="72" rx="47" ry="59" transform="rotate(-5)"/><ellipse cx="70" cy="56" rx="7" ry="11" fill="#fff" transform="rotate(-2)" stroke="none"/><ellipse cx="93" cy="56" rx="7" ry="11" fill="#fff" transform="rotate(-2)" stroke="none"/><path stroke-linecap="round" d="M62 87c8 8 34 8 42-1M35 155c35-45 61-35 95-10"/></g><g transform="matrix(.7 0 0 .7 21 52.5)"><ellipse cx="75" cy="72" rx="47" ry="59" transform="rotate(-5)"/><ellipse cx="70" cy="56" rx="7" ry="11" fill="#fff" transform="rotate(-2)" stroke="none"/><ellipse cx="93" cy="56" rx="7" ry="11" fill="#fff" transform="rotate(-2)" stroke="none"/><path stroke-linecap="round" d="M62 87c8 8 34 8 42-1M35 155c35-45 61-35 95-10"/></g></svg>